{
    "asset" : {
        "generator" : "Khronos glTF Blender I/O v3.2.43",
        "version" : "2.0"
    },
    "scene" : 0,
    "scenes" : [
        {
            "name" : "Scene",
            "nodes" : [
                0
            ]
        }
    ],
    "nodes" : [
        {
            "mesh" : 0,
            "name" : "Model",
            "rotation" : [
                0.47640475630760193,
                0.143336683511734,
                -0.11227251589298248,
                0.8601674437522888
            ],
            "translation" : [
                0,
                1.345123291015625,
                0
            ]
        }
    ],
    "materials" : [
        {
            "doubleSided" : true,
            "name" : "material0",
            "pbrMetallicRoughness" : {
                "baseColorTexture" : {
                    "index" : 0
                },
                "metallicFactor" : 0,
                "roughnessFactor" : 0.5
            }
        }
    ],
    "meshes" : [
        {
            "name" : "Model",
            "primitives" : [
                {
                    "attributes" : {
                        "POSITION" : 0,
                        "NORMAL" : 1,
                        "TEXCOORD_0" : 2
                    },
                    "indices" : 3,
                    "material" : 0
                }
            ]
        }
    ],
    "textures" : [
        {
            "sampler" : 0,
            "source" : 0
        }
    ],
    "images" : [
        {
            "bufferView" : 4,
            "mimeType" : "image/jpeg",
            "name" : "WoodenSculptureLS"
        }
    ],
    "accessors" : [
        {
            "bufferView" : 0,
            "componentType" : 5126,
            "count" : 8339,
            "max" : [
                0.7056315541267395,
                1.0325475931167603,
                1.362866759300232
            ],
            "min" : [
                -0.63253253698349,
                -1.0605727434158325,
                -1.4541058540344238
            ],
            "type" : "VEC3"
        },
        {
            "bufferView" : 1,
            "componentType" : 5126,
            "count" : 8339,
            "type" : "VEC3"
        },
        {
            "bufferView" : 2,
            "componentType" : 5126,
            "count" : 8339,
            "type" : "VEC2"
        },
        {
            "bufferView" : 3,
            "componentType" : 5123,
            "count" : 45000,
            "type" : "SCALAR"
        }
    ],
    "bufferViews" : [
        {
            "buffer" : 0,
            "byteLength" : 100068,
            "byteOffset" : 0
        },
        {
            "buffer" : 0,
            "byteLength" : 100068,
            "byteOffset" : 100068
        },
        {
            "buffer" : 0,
            "byteLength" : 66712,
            "byteOffset" : 200136
        },
        {
            "buffer" : 0,
            "byteLength" : 90000,
            "byteOffset" : 266848
        },
        {
            "buffer" : 0,
            "byteLength" : 69966,
            "byteOffset" : 356848
        }
    ],
    "samplers" : [
        {
            "magFilter" : 9729,
            "minFilter" : 9987
        }
    ],
    "buffers" : [
        {
            "byteLength" : 426816,
            "uri" : "data:application/octet-stream;base64,"
        }
    ]
}
