{
    "asset" : {
        "generator" : "Khronos glTF Blender I/O v3.2.43",
        "version" : "2.0"
    },
    "scene" : 0,
    "scenes" : [
        {
            "name" : "Scene",
            "nodes" : [
                0
            ]
        }
    ],
    "nodes" : [
        {
            "mesh" : 0,
            "name" : "Orange 3",
            "rotation" : [
                0.34687986969947815,
                -0.0497133694589138,
                -0.10696790367364883,
                0.9304627776145935
            ],
            "translation" : [
                0,
                0.15737898647785187,
                0
            ]
        }
    ],
    "materials" : [
        {
            "doubleSided" : true,
            "name" : "Orange_3",
            "pbrMetallicRoughness" : {
                "baseColorTexture" : {
                    "index" : 0
                },
                "metallicFactor" : 0
            }
        }
    ],
    "meshes" : [
        {
            "name" : "Orange 3",
            "primitives" : [
                {
                    "attributes" : {
                        "POSITION" : 0,
                        "NORMAL" : 1,
                        "TEXCOORD_0" : 2
                    },
                    "indices" : 3,
                    "material" : 0
                }
            ]
        }
    ],
    "textures" : [
        {
            "sampler" : 0,
            "source" : 0
        }
    ],
    "images" : [
        {
            "bufferView" : 4,
            "mimeType" : "image/jpeg",
            "name" : "Orange 3"
        }
    ],
    "accessors" : [
        {
            "bufferView" : 0,
            "componentType" : 5126,
            "count" : 2365,
            "max" : [
                0.21056990325450897,
                0.18930202722549438,
                0.2528531551361084
            ],
            "min" : [
                -0.22695043683052063,
                -0.23646016418933868,
                -0.21077442169189453
            ],
            "type" : "VEC3"
        },
        {
            "bufferView" : 1,
            "componentType" : 5126,
            "count" : 2365,
            "type" : "VEC3"
        },
        {
            "bufferView" : 2,
            "componentType" : 5126,
            "count" : 2365,
            "type" : "VEC2"
        },
        {
            "bufferView" : 3,
            "componentType" : 5123,
            "count" : 12345,
            "type" : "SCALAR"
        }
    ],
    "bufferViews" : [
        {
            "buffer" : 0,
            "byteLength" : 28380,
            "byteOffset" : 0
        },
        {
            "buffer" : 0,
            "byteLength" : 28380,
            "byteOffset" : 28380
        },
        {
            "buffer" : 0,
            "byteLength" : 18920,
            "byteOffset" : 56760
        },
        {
            "buffer" : 0,
            "byteLength" : 24690,
            "byteOffset" : 75680
        },
        {
            "buffer" : 0,
            "byteLength" : 1181779,
            "byteOffset" : 100372
        }
    ],
    "samplers" : [
        {
            "magFilter" : 9729,
            "minFilter" : 9987
        }
    ],
    "buffers" : [
        {
            "byteLength" : 1282152,
            "uri" : "data:application/octet-stream;base64,"
        }
    ]
}
